<svg width="24" height="24" viewBox="0 0 24 24" fill="none" xmlns="http://www.w3.org/2000/svg">
<path fill-rule="evenodd" clip-rule="evenodd" d="M12 1.25C9.37665 1.25 7.25 3.37665 7.25 6C7.25 8.62335 9.37665 10.75 12 10.75C14.6233 10.75 16.75 8.62335 16.75 6C16.75 3.37665 14.6233 1.25 12 1.25ZM8.75 6C8.75 4.20507 10.2051 2.75 12 2.75C13.7949 2.75 15.25 4.20507 15.25 6C15.25 7.79493 13.7949 9.25 12 9.25C10.2051 9.25 8.75 7.79493 8.75 6Z" fill="#4B5563"/>
<path fill-rule="evenodd" clip-rule="evenodd" d="M12.0001 12.25C9.68659 12.25 7.55506 12.7759 5.97559 13.6643C4.41962 14.5396 3.25014 15.8661 3.25014 17.5L3.25007 17.602C3.24894 18.7638 3.24753 20.222 4.52655 21.2635C5.15602 21.7761 6.03662 22.1406 7.22635 22.3815C8.4194 22.6229 9.97437 22.75 12.0001 22.75C14.0259 22.75 15.5808 22.6229 16.7739 22.3815C17.9636 22.1406 18.8442 21.7761 19.4737 21.2635C20.7527 20.222 20.7513 18.7638 20.7502 17.602L20.7501 17.5C20.7501 15.8661 19.5806 14.5396 18.0246 13.6643C16.4452 12.7759 14.3136 12.25 12.0001 12.25ZM4.75014 17.5C4.75014 16.6487 5.37152 15.7251 6.71098 14.9717C8.02694 14.2315 9.89541 13.75 12.0001 13.75C14.1048 13.75 15.9733 14.2315 17.2892 14.9717C18.6287 15.7251 19.2501 16.6487 19.2501 17.5C19.2501 18.8078 19.2098 19.544 18.5265 20.1004C18.156 20.4022 17.5366 20.6967 16.4763 20.9113C15.4194 21.1252 13.9743 21.25 12.0001 21.25C10.0259 21.25 8.58088 21.1252 7.52393 20.9113C6.46366 20.6967 5.84426 20.4022 5.47373 20.1004C4.79046 19.544 4.75014 18.8078 4.75014 17.5Z" fill="#4B5563"/>
</svg>
