<svg width="219" height="49" viewBox="0 0 219 49" fill="none" xmlns="http://www.w3.org/2000/svg">
<circle cx="31.5789" cy="44.3201" r="3.6238" fill="#1181C9"/>
<ellipse cx="3.56121" cy="3.69007" rx="3.56121" ry="3.69007" transform="matrix(-0.00228233 -0.999997 0.999998 -0.00212571 44.3027 22.7793)" fill="#05A4E6"/>
<ellipse cx="3.69007" cy="3.56121" rx="3.69007" ry="3.56121" transform="matrix(-0.999998 0.0020139 -0.00216229 -0.999998 25.1699 7.12207)" fill="#196BB5"/>
<ellipse cx="3.56121" cy="3.69007" rx="3.56121" ry="3.69007" transform="matrix(0.000296093 1 -1 0.000275774 8.98438 25.3037)" fill="#2A4191"/>
<circle cx="40.4999" cy="42.6483" r="3.06629" fill="#D9D9D9"/>
<circle cx="40.4999" cy="42.6483" r="3.06629" fill="#0996DB"/>
<ellipse cx="2.95525" cy="3.06218" rx="2.95525" ry="3.06218" transform="matrix(-0.00228233 -0.999997 0.999998 -0.00212571 42.9883 13.7578)" fill="#06A1E4"/>
<ellipse cx="3.06218" cy="2.95525" rx="3.06218" ry="2.95525" transform="matrix(-0.999998 0.0020139 -0.00216229 -0.999998 15.8223 8.38965)" fill="#2255A1"/>
<ellipse cx="2.95525" cy="3.06218" rx="2.95525" ry="3.06218" transform="matrix(0.000296093 1 -1 0.000275774 10.2812 34.3271)" fill="#274897"/>
<ellipse cx="46.9117" cy="38.1886" rx="2.23003" ry="1.95128" fill="#D9D9D9"/>
<ellipse cx="46.9117" cy="38.1886" rx="2.23003" ry="1.95128" fill="#069FE2"/>
<ellipse cx="2.0696" cy="2.14449" rx="2.0696" ry="2.14449" transform="matrix(-0.00228233 -0.999997 0.999998 -0.00212571 39.2051 6.75391)" fill="#0A95DA"/>
<ellipse cx="2.14449" cy="2.0696" rx="2.14449" ry="2.0696" transform="matrix(-0.999998 0.0020139 -0.00216229 -0.999998 8.56641 12.04)" fill="#264595"/>
<ellipse cx="2.0696" cy="2.14449" rx="2.0696" ry="2.14449" transform="matrix(0.000296093 1 -1 0.000275774 14.0508 41.3369)" fill="#23519F"/>
<circle cx="16.5275" cy="38.1886" r="1.95128" fill="#D9D9D9"/>
<circle cx="16.5275" cy="38.1886" r="1.95128" fill="#205CAA"/>
<ellipse cx="2.0696" cy="2.14449" rx="2.0696" ry="2.14449" transform="matrix(-0.00228233 -0.999997 0.999998 -0.00212571 39.2715 36.0068)" fill="#0A95DA"/>
<ellipse cx="2.14449" cy="2.0696" rx="2.14449" ry="2.0696" transform="matrix(-0.999998 0.0020139 -0.00216229 -0.999998 38.877 11.9795)" fill="#0C8BD0"/>
<ellipse cx="2.0696" cy="2.14449" rx="2.0696" ry="2.14449" transform="matrix(0.000296093 1 -1 0.000275774 14.041 12.084)" fill="#2354A1"/>
<ellipse cx="50.5344" cy="32.8924" rx="1.39377" ry="1.11502" fill="#D9D9D9"/>
<ellipse cx="50.5344" cy="32.8924" rx="1.39377" ry="1.11502" fill="#02A7EC"/>
<ellipse cx="1.28476" cy="1.2399" rx="1.28476" ry="1.2399" transform="matrix(-0.999998 0.0020139 -0.00216229 -0.999998 4.13086 16.3008)" fill="#2B3D8F"/>
<ellipse cx="1.2399" cy="1.28476" rx="1.2399" ry="1.28476" transform="matrix(0.000296093 1 -1 0.000275774 18.457 45.624)" fill="#1F5EAB"/>
<ellipse cx="13.1809" cy="32.8924" rx="1.39377" ry="1.11502" fill="#D9D9D9"/>
<ellipse cx="13.1809" cy="32.8924" rx="1.39377" ry="1.11502" fill="#2154A3"/>
<ellipse cx="1.2399" cy="1.28476" rx="1.2399" ry="1.28476" transform="matrix(-0.00228233 -0.999997 0.999998 -0.00212571 34.873 38.498)" fill="#0A84CD"/>
<ellipse cx="1.28476" cy="1.2399" rx="1.28476" ry="1.2399" transform="matrix(-0.999998 0.0020139 -0.00216229 -0.999998 41.457 16.2246)" fill="#0992D6"/>
<ellipse cx="1.2399" cy="1.28476" rx="1.2399" ry="1.28476" transform="matrix(0.000296093 1 -1 0.000275774 18.4473 9.60254)" fill="#1F5EAB"/>
<circle cx="22.66" cy="42.6483" r="3.06629" fill="#D9D9D9"/>
<circle cx="22.66" cy="42.6483" r="3.06629" fill="#196CB6"/>
<ellipse cx="2.92728" cy="3.0332" rx="2.92728" ry="3.0332" transform="matrix(-0.00228233 -0.999997 0.999998 -0.00212571 43.0645 30.7598)" fill="#069FE3"/>
<ellipse cx="3.0332" cy="2.92728" rx="3.0332" ry="2.92728" transform="matrix(-0.999998 0.0020139 -0.00216229 -0.999998 33.4414 8.31641)" fill="#137BC4"/>
<ellipse cx="2.92728" cy="3.0332" rx="2.92728" ry="3.0332" transform="matrix(0.000296093 1 -1 0.000275774 10.2383 17.3242)" fill="#284998"/>
<circle cx="51.6507" cy="29.2689" r="0.836262" fill="#D9D9D9"/>
<circle cx="51.6507" cy="29.2689" r="0.836262" fill="#01ADED"/>
<ellipse cx="0.898369" cy="0.866997" rx="0.898369" ry="0.866997" transform="matrix(-0.999998 0.0020139 -0.00216229 -0.999998 2.43945 19.8076)" fill="#2E3C8B"/>
<ellipse cx="0.866996" cy="0.898369" rx="0.866996" ry="0.898369" transform="matrix(0.000296093 1 -1 0.000275774 22.0898 47.2656)" fill="#1B68B2"/>
<circle cx="12.0667" cy="29.2689" r="0.836262" fill="#D9D9D9"/>
<circle cx="12.0667" cy="29.2689" r="0.836262" fill="#2554A2"/>
<ellipse cx="0.866997" cy="0.898369" rx="0.866997" ry="0.898369" transform="matrix(-0.00228233 -0.999997 0.999998 -0.00212571 31.2422 39.2695)" fill="#1381CE"/>
<ellipse cx="0.898369" cy="0.866997" rx="0.898369" ry="0.866997" transform="matrix(-0.999998 0.0020139 -0.00216229 -0.999998 42.2559 19.7295)" fill="#0791DE"/>
<ellipse cx="0.866996" cy="0.898369" rx="0.866996" ry="0.898369" transform="matrix(0.000296093 1 -1 0.000275774 22.0781 8.83789)" fill="#1A67AE"/>
<path d="M77.6217 26.2295H74.5645L67.6421 15.7695V26.2295H64.5849V10.9653H67.6421L74.5645 21.4472V10.9653H77.6217V26.2295ZM87.2813 26.3824C85.8546 26.3824 84.5444 26.0475 83.3507 25.3778C82.1569 24.7082 81.2106 23.7837 80.5118 22.6045C79.813 21.4108 79.4636 20.0641 79.4636 18.5647C79.4636 17.0797 79.813 15.7477 80.5118 14.5685C81.2106 13.3747 82.1569 12.443 83.3507 11.7733C84.5444 11.1036 85.8546 10.7688 87.2813 10.7688C88.7226 10.7688 90.0328 11.1036 91.212 11.7733C92.4058 12.443 93.3448 13.3747 94.029 14.5685C94.7278 15.7477 95.0772 17.0797 95.0772 18.5647C95.0772 20.0641 94.7278 21.4108 94.029 22.6045C93.3448 23.7837 92.4058 24.7082 91.212 25.3778C90.0183 26.0475 88.708 26.3824 87.2813 26.3824ZM87.2813 23.6527C88.1985 23.6527 89.0065 23.4489 89.7053 23.0413C90.404 22.6191 90.95 22.0222 91.343 21.2506C91.7361 20.479 91.9326 19.5837 91.9326 18.5647C91.9326 17.5456 91.7361 16.6576 91.343 15.9005C90.95 15.129 90.404 14.5394 89.7053 14.1317C89.0065 13.7241 88.1985 13.5203 87.2813 13.5203C86.3642 13.5203 85.5489 13.7241 84.8356 14.1317C84.1368 14.5394 83.5909 15.129 83.1978 15.9005C82.8047 16.6576 82.6082 17.5456 82.6082 18.5647C82.6082 19.5837 82.8047 20.479 83.1978 21.2506C83.5909 22.0222 84.1368 22.6191 84.8356 23.0413C85.5489 23.4489 86.3642 23.6527 87.2813 23.6527ZM110.607 10.9872L105.016 26.2295H101.304L95.7139 10.9872H98.9894L103.182 23.1068L107.353 10.9872H110.607ZM121.349 23.3252H115.279L114.274 26.2295H111.064L116.545 10.9653H120.105L125.586 26.2295H122.354L121.349 23.3252ZM120.519 20.8794L118.314 14.503L116.108 20.8794H120.519ZM143.816 10.9872V26.2295H140.759V16.3154L136.675 26.2295H134.36L130.255 16.3154V26.2295H127.198V10.9872H130.67L135.518 22.3206L140.366 10.9872H143.816ZM154.225 23.8056H159.248V26.2295H151.168V10.9872H154.225V23.8056ZM163.812 13.4548V17.2763H168.943V19.7002H163.812V23.7401H169.598V26.2295H160.754V10.9653H169.598V13.4548H163.812ZM182.553 15.573C182.203 14.9324 181.723 14.4447 181.112 14.1099C180.5 13.7751 179.787 13.6076 178.972 13.6076C178.069 13.6076 177.268 13.8114 176.569 14.2191C175.871 14.6267 175.325 15.209 174.932 15.966C174.539 16.7231 174.342 17.5965 174.342 18.5865C174.342 19.6056 174.539 20.4936 174.932 21.2506C175.339 22.0076 175.9 22.59 176.613 22.9976C177.326 23.4052 178.156 23.609 179.103 23.609C180.267 23.609 181.221 23.3033 181.963 22.6919C182.706 22.0659 183.193 21.1997 183.426 20.0933H178.185V17.7567H186.44V20.4208C186.236 21.4836 185.799 22.4662 185.13 23.3688C184.46 24.2714 183.594 24.9993 182.531 25.5525C181.483 26.0912 180.304 26.3605 178.993 26.3605C177.523 26.3605 176.191 26.033 174.997 25.3778C173.818 24.7082 172.886 23.7837 172.202 22.6045C171.532 21.4253 171.197 20.086 171.197 18.5865C171.197 17.087 171.532 15.7477 172.202 14.5685C172.886 13.3747 173.818 12.4503 174.997 11.7952C176.191 11.1255 177.516 10.7906 178.972 10.7906C180.689 10.7906 182.182 11.2128 183.448 12.0572C184.715 12.887 185.588 14.0589 186.069 15.573H182.553ZM197.611 23.3252H191.54L190.536 26.2295H187.326L192.807 10.9653H196.366L201.848 26.2295H198.616L197.611 23.3252ZM196.781 20.8794L194.576 14.503L192.37 20.8794H196.781ZM206.517 23.8056H211.539V26.2295H203.46V10.9872H206.517V23.8056Z" fill="#004AAB"/>
<path d="M84.7479 38.2197V32.9296H85.5826V37.5982H88.1987V38.2197H84.7479ZM92.2853 38.2197L93.9186 32.9296H95.1327L96.8021 38.2197H95.924L95.4868 36.8611H93.5319L93.12 38.2197H92.2853ZM93.7126 36.2504H95.2989L94.5076 33.4752L93.7126 36.2504ZM102.251 38.2197L100.744 32.9296H101.615L102.609 36.8864L103.92 32.9296H104.506L105.63 36.9875L106.757 32.9296H107.548L105.937 38.2197H105.221L104.155 34.5376L102.894 38.2197H102.251ZM112.206 39.3074L111.942 38.9605C112.005 38.9003 112.077 38.8051 112.159 38.675C112.243 38.5449 112.285 38.4136 112.285 38.2812L111.841 38.2342V37.3417H112.845V37.8981C112.848 38.1438 112.831 38.3534 112.795 38.5269C112.759 38.7027 112.694 38.8521 112.6 38.9749C112.508 39.1002 112.377 39.211 112.206 39.3074ZM125.112 38.3101C124.804 38.3101 124.531 38.2787 124.292 38.2161C124.056 38.1535 123.853 38.0607 123.682 37.9379C123.513 37.815 123.377 37.6645 123.273 37.4862C123.17 37.3079 123.096 37.1032 123.053 36.8719L123.757 36.5648C123.844 36.8322 123.945 37.0441 124.061 37.2007C124.179 37.3573 124.327 37.4693 124.505 37.5368C124.686 37.6042 124.913 37.638 125.185 37.638C125.428 37.638 125.627 37.6066 125.781 37.544C125.935 37.479 126.048 37.3862 126.121 37.2658C126.195 37.1429 126.231 36.996 126.229 36.8249C126.227 36.6033 126.189 36.4323 126.117 36.3118C126.045 36.1914 125.916 36.089 125.73 36.0047C125.547 35.9204 125.285 35.8228 124.943 35.712C124.603 35.6012 124.305 35.4904 124.05 35.3795C123.795 35.2687 123.596 35.1206 123.454 34.9351C123.312 34.7472 123.241 34.487 123.241 34.1546C123.241 33.8655 123.308 33.6234 123.443 33.4283C123.58 33.2307 123.788 33.0826 124.065 32.9838C124.344 32.8826 124.697 32.832 125.123 32.832C125.422 32.832 125.676 32.861 125.886 32.9188C126.098 32.9766 126.286 33.0717 126.449 33.2042C126.613 33.3343 126.771 33.5126 126.923 33.739L126.348 34.1835C126.194 33.933 126.031 33.7559 125.86 33.6523C125.689 33.5487 125.475 33.4969 125.217 33.4969C124.967 33.4969 124.76 33.521 124.596 33.5692C124.432 33.615 124.309 33.6836 124.227 33.7752C124.148 33.8643 124.108 33.9739 124.108 34.104C124.108 34.2558 124.133 34.3774 124.184 34.4689C124.237 34.5581 124.32 34.6316 124.433 34.6894C124.546 34.7472 124.692 34.8038 124.87 34.8592C125.051 34.9146 125.269 34.9845 125.524 35.0688C125.847 35.1748 126.125 35.2952 126.359 35.4301C126.595 35.565 126.777 35.7409 126.905 35.9577C127.032 36.1721 127.096 36.4527 127.096 36.7996C127.096 37.1321 127.023 37.4103 126.876 37.6343C126.729 37.8584 126.508 38.027 126.215 38.1402C125.921 38.2535 125.553 38.3101 125.112 38.3101ZM131.768 38.2197V32.9296H132.603V38.2197H131.768ZM137.495 38.2197V32.9296H138.706L140.064 36.4238L141.499 32.9296H142.594V38.2197H141.828V33.9992L140.411 37.3164H139.652L138.287 33.9595V38.2197H137.495ZM147.555 38.2197V32.9296H149.148C149.722 32.9296 150.187 32.9766 150.543 33.0705C150.902 33.1621 151.165 33.3138 151.331 33.5258C151.5 33.7354 151.584 34.0197 151.584 34.3786C151.584 34.7857 151.502 35.1049 151.338 35.3362C151.174 35.5674 150.907 35.73 150.536 35.824C150.167 35.9179 149.675 35.9649 149.058 35.9649H148.39V38.2197H147.555ZM148.39 35.3253H149.177C149.548 35.3253 149.847 35.3049 150.073 35.2639C150.302 35.223 150.468 35.1374 150.572 35.0074C150.678 34.8749 150.731 34.6749 150.731 34.4075C150.731 34.1353 150.667 33.9402 150.54 33.8221C150.414 33.7041 150.23 33.6306 149.987 33.6017C149.746 33.5728 149.452 33.5584 149.105 33.5584H148.39V35.3253ZM156.256 38.2197V32.9296H157.09V37.5982H159.707V38.2197H156.256ZM164.122 38.2197V32.9296H164.957V38.2197H164.122ZM169.849 38.2197V32.9296H173.585V33.5511H170.684V35.1374H173.181V35.7734H170.684V38.2197H169.849ZM178.156 38.2197V32.9296H178.991V38.2197H178.156ZM183.883 38.2197V32.9296H187.565V33.5511H184.718V35.0905H187.2V35.7264H184.718V37.5982H187.605V38.2197H183.883ZM192.338 38.2197V32.9296H194.34C194.88 32.9296 195.327 33.0127 195.681 33.1789C196.037 33.3428 196.304 33.6162 196.479 33.9992C196.658 34.3822 196.747 34.9002 196.747 35.553C196.747 36.1841 196.666 36.696 196.505 37.0887C196.346 37.479 196.09 37.7656 195.739 37.9487C195.387 38.1294 194.923 38.2197 194.347 38.2197H192.338ZM193.173 37.5838H194.113C194.561 37.5838 194.916 37.5259 195.179 37.4103C195.441 37.2947 195.628 37.0911 195.739 36.7996C195.852 36.5057 195.908 36.0914 195.908 35.5566C195.908 35.0869 195.863 34.7062 195.771 34.4147C195.68 34.1209 195.519 33.9065 195.291 33.7716C195.062 33.6342 194.743 33.5656 194.333 33.5656H193.173V37.5838Z" fill="url(#paint0_linear_289_4065)"/>
<defs>
<linearGradient id="paint0_linear_289_4065" x1="84.2637" y1="35.6798" x2="197.438" y2="35.6798" gradientUnits="userSpaceOnUse">
<stop stop-color="#2C3790"/>
<stop offset="1" stop-color="#02AAEB"/>
</linearGradient>
</defs>
</svg>
