<svg width="22" height="17" viewBox="0 0 22 17" fill="none" xmlns="http://www.w3.org/2000/svg">
<path d="M20.9 0H1.1C0.808366 0.000339646 0.528774 0.116341 0.322558 0.322558C0.116341 0.528774 0.000339646 0.808366 0 1.1V15.7667C0.000339646 16.0583 0.116341 16.3379 0.322558 16.5441C0.528774 16.7503 0.808366 16.8663 1.1 16.8667H20.9C21.1916 16.8663 21.4712 16.7503 21.6774 16.5441C21.8837 16.3379 21.9997 16.0583 22 15.7667V1.1C21.9997 0.808366 21.8837 0.528774 21.6774 0.322558C21.4712 0.116341 21.1916 0.000339646 20.9 0ZM20.5333 1.46667V4.4H1.46667V1.46667H20.5333ZM1.46667 15.4V7.33333H20.5333V15.4H1.46667Z" fill="#4B5563"/>
<path d="M6.23411 11H3.30078V12.4667H6.23411V11Z" fill="#4B5563"/>
<path d="M10.6326 11H7.69922V12.4667H10.6326V11Z" fill="#4B5563"/>
</svg>
